<svg width="300" height="310" viewBox="0 0 300 310" fill="none" xmlns="http://www.w3.org/2000/svg">
<path fill-rule="evenodd" clip-rule="evenodd" d="M70.4047 258.892C47.1399 242.666 7.41511 239.7 0.996792 212.214C-5.95899 182.427 39.3145 162.238 40.719 131.767C42.1563 100.583 -3.41058 73.7504 8.7014 45.06C19.877 18.5876 61.2903 25.0976 89.0574 17.2643C112.112 10.7604 134.308 4.40002 158.266 2.86652C185.196 1.14281 213.081 -3.34552 237.788 7.74429C264.097 19.5532 295.275 37.8896 299.494 66.2574C304.023 96.7053 271.048 118.824 258.465 146.769C250.737 163.929 249.887 183.196 239.71 199.021C229.423 215.017 212.389 224.175 199.617 238.273C178.524 261.554 171.143 304.153 139.952 309.13C111.36 313.693 94.2679 275.536 70.4047 258.892Z" fill="#BCC788"/>
</svg>